<?xml version="1.0" ?><!DOCTYPE svg  PUBLIC '-//W3C//DTD SVG 1.1//EN'  'http://www.w3.org/Graphics/SVG/1.1/DTD/svg11.dtd'><svg enable-background="new 0 0 512 512" height="512px" id="Layer_1" version="1.1" viewBox="0 0 512 512" width="512px" xml:space="preserve" xmlns="http://www.w3.org/2000/svg" xmlns:xlink="http://www.w3.org/1999/xlink"><g><linearGradient gradientUnits="userSpaceOnUse" id="SVGID_1_" x1="229.6494" x2="281.5068" y1="194.5" y2="194.5"><stop offset="0" style="stop-color:#FF6378"/><stop offset="1" style="stop-color:#FF7278"/></linearGradient><path d="M240.244,205h30.671c5.845,0,10.592-4.737,10.592-10.525c0-5.795-4.747-10.475-10.592-10.475   h-30.671c-5.855,0-10.595,4.68-10.595,10.475C229.649,200.263,234.389,205,240.244,205z" fill="url(#SVGID_1_)"/><linearGradient gradientUnits="userSpaceOnUse" id="SVGID_2_" x1="229.6494" x2="313.0977" y1="258.5" y2="258.5"><stop offset="0" style="stop-color:#FF6378"/><stop offset="1" style="stop-color:#FF7278"/></linearGradient><path d="M302.563,248h-62.319c-5.855,0-10.595,4.693-10.595,10.502c0,5.721,4.739,10.498,10.595,10.498   h62.319c5.819,0,10.534-4.777,10.534-10.498C313.098,252.696,308.383,248,302.563,248z" fill="url(#SVGID_2_)"/><linearGradient gradientUnits="userSpaceOnUse" id="SVGID_3_" x1="48.459" x2="464.541" y1="256.6533" y2="256.6533"><stop offset="0" style="stop-color:#FF6378"/><stop offset="1" style="stop-color:#FF7278"/></linearGradient><path d="M464.541,213.399c0-114.896-93.144-208.171-208.041-208.171S48.459,98.569,48.459,213.465   C48.459,271.032,71.844,323,109.63,361h-0.208L256.5,508.078L403.578,361h-0.207C441.156,323,464.541,270.967,464.541,213.399z    M358.421,258.576C358.251,288.949,333.527,314,303.098,314h-63.562C209.106,314,185,288.777,185,258.404v-64.57   C185,163.404,209.106,139,239.536,139h38.686c14.28,2,35.067,13.671,42.729,29.941c2.109,4.566,3.221,5.133,4.963,18.67   c0.941,6.96,1.423,12.049,4.531,14.909c4.383,3.979,20.652,1.262,23.867,3.782l2.464,1.91l1.473,3.037l0.513,2.521L358.421,258.576   z" fill="url(#SVGID_3_)"/></g><linearGradient gradientUnits="userSpaceOnUse" id="SVGID_4_" x1="222.7822" x2="519.9684" y1="172.6851" y2="433.8484"><stop offset="0" style="stop-color:#000000"/><stop offset="1" style="stop-color:#000000;stop-opacity:0.2"/></linearGradient><path d="M403.578,361h-0.207c33.017-34,55.036-77.181,60.068-126.098l-174.841-94.267  l0.326,0.852c12.485,4.833,26.135,14.731,32.025,27.241c2.109,4.566,3.221,5.239,4.963,18.776c0.941,6.96,1.423,12.102,4.531,14.962  c4.383,3.979,20.652,1.289,23.867,3.809l2.464,1.923l1.473,3.043l0.513,2.403l-0.34,44.931C358.251,288.949,333.527,314,303.098,314  h-63.562c-11.633,0-22.394-3.867-31.258-10.03l131.451,120.757L403.578,361z" fill="url(#SVGID_4_)" opacity="0.1"/></svg>